<svg width="190" height="189" viewBox="0 0 190 189" fill="none" xmlns="http://www.w3.org/2000/svg">
<path d="M120.666 188.752C119.779 188.265 119.579 187.71 119.268 185.028C119.046 183.1 118.891 182.501 118.514 182.147C118.137 181.77 117.937 181.725 117.449 181.903C116.806 182.124 116.451 182.701 116.073 184.097C115.763 185.294 114.631 186.713 113.256 187.666C111.126 189.129 109.661 188.619 109.151 186.247C108.507 183.1 106.599 183.255 102.938 186.779C99.9652 189.639 99.2552 189.329 98.9667 185.095C98.7227 181.504 98.168 181.149 96.2599 183.388C94.1742 185.826 92.7986 187.09 92.2217 187.09C91.4673 187.09 90.4467 186.159 89.8477 184.94C89.3817 183.986 89.3595 183.587 89.3152 179.243C89.293 176.671 89.1598 173.834 89.0045 172.925C88.6052 170.332 88.6273 164.723 89.0489 162.263C89.7367 158.295 91.4452 153.462 92.9095 151.334C94.1742 149.517 98.9889 145.992 101.296 145.238C102.029 144.995 103.005 144.64 103.449 144.44C104.669 143.908 106.777 143.953 109.062 144.529C111.414 145.105 111.636 145.216 112.945 146.347C118.07 150.78 122.33 152.953 125.814 152.953C126.879 152.953 134.045 152.044 135.576 151.711C136.93 151.401 138.527 150.825 140.724 149.805C142.632 148.94 143.453 148.674 144.984 148.519C148.09 148.164 150.73 148.785 152.039 150.204C152.794 151.046 154.103 154.305 154.524 156.455C155.279 160.312 155.146 165.92 154.192 172.903C153.326 179.088 152.838 180.972 151.64 182.59C151.019 183.41 148.556 185.095 147.979 185.095C147.757 185.095 147.18 184.74 146.692 184.319C145.45 183.188 145.117 183.255 142.765 185.117C140.879 186.624 140.391 186.802 139.681 186.336C138.949 185.848 138.682 185.139 138.682 183.632C138.682 182.479 138.217 180.883 137.884 180.883C137.418 180.883 136.863 181.814 136.353 183.41C135.687 185.538 134.622 187.068 133.202 187.999C131.25 189.218 130.029 188.575 130.029 186.27C130.029 185.028 129.719 184.186 128.765 182.945C127.877 181.748 127.478 181.947 126.501 184.053C125.392 186.403 124.505 187.6 123.329 188.287C122.042 189.018 121.376 189.151 120.666 188.752Z" fill="white"/>
<path d="M45.9829 118.926C44.6073 118.305 43.4314 117.175 42.2111 115.269C40.7023 112.963 39.5264 111.633 37.0635 109.461C34.512 107.2 31.9604 105.559 30.7845 105.426C30.2742 105.36 27.1235 105.205 23.7954 105.072C17.3832 104.828 14.9204 104.584 12.7682 104.052C9.95035 103.343 4.29253 100.084 2.25127 98.0005C0.232206 95.9168 -0.477796 92.7247 0.320956 89.2223C1.09752 85.8529 4.11503 81.0427 6.93285 78.6265C12.036 74.2818 26.8129 68.2966 32.5151 68.2745C35.5548 68.2523 37.2632 67.942 37.9289 67.2991C38.4614 66.7671 38.5057 66.5233 38.5945 64.6834C38.6389 63.5751 38.4835 60.3608 38.2617 57.5456C37.7514 51.1837 37.6848 38.482 38.1285 35.2456C39.1492 27.8861 41.5454 23.6744 47.8911 18.0218C54.037 12.5687 59.1623 9.57616 68.0817 6.22894C74.028 4.01223 77.1786 3.21422 82.1043 2.66004C83.258 2.52704 85.6099 2.0837 87.3184 1.66253C92.6656 0.37684 96.7924 0 105.956 0C113.1 0 116.073 0.243837 119.801 1.08618C121.332 1.44086 123.928 1.9507 125.57 2.19454C130.384 2.97038 133.801 4.27824 137.795 6.89395C142.809 10.1968 146.315 14.8963 152.35 26.4896C154.547 30.7013 154.547 30.7013 154.613 40.344C154.702 51.228 154.391 59.053 153.837 61.0259C153.304 62.9322 153.349 62.9544 158.052 62.4002C161.58 61.979 163.732 61.5135 165.308 60.8042C165.973 60.4938 167.327 60.0505 168.303 59.8288C172.474 58.8092 175.248 57.9446 179.663 56.1713C182.259 55.1516 184.544 54.3092 184.766 54.3092C185.387 54.3314 186.053 54.9743 187.14 56.659C189.847 60.8929 189.869 63.1317 187.251 66.745C186.519 67.7646 185.809 68.8287 185.698 69.1168C185.365 69.9592 183.59 71.533 181.438 72.8631C178.554 74.6364 172.785 77.5181 169.523 78.7817C167.992 79.3802 164.886 80.5994 162.623 81.486C160.36 82.3949 158.008 83.2151 157.409 83.3259C156.81 83.4589 155.723 83.7692 155.013 84.0131C153.57 84.5229 152.594 84.5229 146.337 84.0574C139.548 83.5254 129.098 83.2594 111.947 83.1929C95.5943 83.1042 93.3977 83.1486 87.6512 83.5476C84.1677 83.8136 79.5749 84.1239 77.4449 84.2347C68.4811 84.7889 57.1433 86.9391 53.4823 88.779C51.8405 89.6213 51.6186 90.1755 51.6408 93.6557C51.6408 97.003 52.0401 99.131 53.1939 102.079C54.2367 104.717 54.3698 106.734 53.7264 109.904C53.0386 113.163 52.4173 114.958 51.3745 116.488C49.9101 118.682 47.6692 119.702 45.9829 118.926Z" fill="white"/>
</svg>
