<?xml version="1.0" encoding="UTF-8" standalone="no"?>
<svg xmlns:dc="http://purl.org/dc/elements/1.1/" xmlns:cc="http://creativecommons.org/ns#"
  xmlns:rdf="http://www.w3.org/1999/02/22-rdf-syntax-ns#" xmlns:svg="http://www.w3.org/2000/svg"
  xmlns="http://www.w3.org/2000/svg" xmlns:sodipodi="http://sodipodi.sourceforge.net/DTD/sodipodi-0.dtd"
  xmlns:inkscape="http://www.inkscape.org/namespaces/inkscape" sodipodi:docname="logo.svg"
  inkscape:version="1.0 (4035a4f, 2020-05-01)" id="svg8" version="1.1" viewBox="0 0 655.63748 175.15417" height="662"
  width="2478">
  <defs id="defs2">
    <style type="text/css">
      @font-face {
        font-family: 'Bowlby One SC';
        src: url('../../../fonts/BowlbyOneSC-Regular.ttf');
      }

      #text1502,
      #g1526 {
        fill: #ffffff;
      }

      @media (prefers-color-scheme: light) {

        #text1502,
        #g1526 {
          fill: #000000;
        }
      }
    </style>
  </defs>
  <metadata id="metadata5">
    <rdf:RDF>
      <cc:Work rdf:about="">
        <dc:format>image/svg+xml</dc:format>
        <dc:type rdf:resource="http://purl.org/dc/dcmitype/StillImage" />
        <dc:title></dc:title>
      </cc:Work>
    </rdf:RDF>
  </metadata>
  <g id="layer1" inkscape:groupmode="layer" inkscape:label="Calque 1">
    <text id="text1502" y="120.90555" x="209.36569"
      style="font-style:normal;font-variant:normal;font-weight:normal;font-stretch:normal;font-size:90.4643px;line-height:1.25;font-family:'Bowlby One SC';-inkscape-font-specification:'Bowlby One SC, Normal';font-variant-ligatures:normal;font-variant-caps:normal;font-variant-numeric:normal;font-variant-east-asian:normal;stroke-width:0.137374"
      xml:space="preserve">
      <tspan
        style="font-style:normal;font-variant:normal;font-weight:normal;font-stretch:normal;font-size:90.4643px;font-family:'Bowlby One SC';-inkscape-font-specification:'Bowlby One SC, Normal';font-variant-ligatures:normal;font-variant-caps:normal;font-variant-numeric:normal;font-variant-east-asian:normal;stroke-width:0.137374"
        y="120.90555" x="209.36569" id="tspan1500" sodipodi:role="line">Dupondt</tspan>
    </text>
    <g transform="matrix(0.20541154,0,0,0.20541154,-0.19584771,-0.20541154)" id="g1526">
      <path
        d="m 544.8,852.5 c -4,-2.2 -4.9,-4.7 -6.3,-16.8 -1,-8.7 -1.7,-11.4 -3.4,-13 -1.7,-1.7 -2.6,-1.9 -4.8,-1.1 -2.9,1 -4.5,3.6 -6.2,9.9 -1.4,5.4 -6.5,11.8 -12.7,16.1 -9.6,6.6 -16.2,4.3 -18.5,-6.4 -2.9,-14.2 -11.5,-13.5 -28,2.4 -13.4,12.9 -16.6,11.5 -17.9,-7.6 -1.1,-16.2 -3.6,-17.8 -12.2,-7.7 -9.4,11 -15.6,16.7 -18.2,16.7 -3.4,0 -8,-4.2 -10.7,-9.7 -2.1,-4.3 -2.2,-6.1 -2.4,-25.7 -0.1,-11.6 -0.7,-24.4 -1.4,-28.5 -1.8,-11.7 -1.7,-37 0.2,-48.1 3.1,-17.9 10.8,-39.7 17.4,-49.3 5.7,-8.2 27.4,-24.1 37.8,-27.5 3.3,-1.1 7.7,-2.7 9.7,-3.6 5.5,-2.4 15,-2.2 25.3,0.4 10.6,2.6 11.6,3.1 17.5,8.2 23.1,20 42.3,29.8 58,29.8 4.8,0 37.1,-4.1 44,-5.6 6.1,-1.4 13.3,-4 23.2,-8.6 8.6,-3.9 12.3,-5.1 19.2,-5.8 14,-1.6 25.9,1.2 31.8,7.6 3.4,3.8 9.3,18.5 11.2,28.2 3.4,17.4 2.8,42.7 -1.5,74.2 -3.9,27.9 -6.1,36.4 -11.5,43.7 -2.8,3.7 -13.9,11.3 -16.5,11.3 -1,0 -3.6,-1.6 -5.8,-3.5 -5.6,-5.1 -7.1,-4.8 -17.7,3.6 -8.5,6.8 -10.7,7.6 -13.9,5.5 -3.3,-2.2 -4.5,-5.4 -4.5,-12.2 0,-5.2 -2.1,-12.4 -3.6,-12.4 -2.1,0 -4.6,4.2 -6.9,11.4 -3,9.6 -7.8,16.5 -14.2,20.7 -8.8,5.5 -14.3,2.6 -14.3,-7.8 0,-5.6 -1.4,-9.4 -5.7,-15 -4,-5.4 -5.8,-4.5 -10.2,5 -5,10.6 -9,16 -14.3,19.1 -5.8,3.3 -8.8,3.9 -12,2.1 z"
        id="path1522" />
      <path
        d="m 208.2,537.5 c -6.2,-2.8 -11.5,-7.9 -17,-16.5 -6.8,-10.4 -12.1,-16.4 -23.2,-26.2 -11.5,-10.2 -23,-17.6 -28.3,-18.2 -2.3,-0.3 -16.5,-1 -31.5,-1.6 -28.9,-1.1 -40,-2.2 -49.7,-4.6 C 45.8,467.2 20.3,452.5 11.1,443.1 2,433.7 -1.2,419.3 2.4,403.5 c 3.5,-15.2 17.1,-36.9 29.8,-47.8 23,-19.6 89.6,-46.6 115.3,-46.7 13.7,-0.1 21.4,-1.5 24.4,-4.4 2.4,-2.4 2.6,-3.5 3,-11.8 0.2,-5 -0.5,-19.5 -1.5,-32.2 -2.3,-28.7 -2.6,-86 -0.6,-100.6 4.6,-33.2 15.4,-52.2 44,-77.7 27.7,-24.6 50.8,-38.1 91,-53.2 26.8,-10 41,-13.6 63.2,-16.1 5.2,-0.6 15.8,-2.6 23.5,-4.5 24.1,-5.8 42.7,-7.5 84,-7.5 32.2,0 45.6,1.1 62.4,4.9 6.9,1.6 18.6,3.9 26,5 21.7,3.5 37.1,9.4 55.1,21.2 22.6,14.9 38.4,36.1 65.6,88.4 9.9,19 9.9,19 10.2,62.5 0.4,49.1 -1,84.4 -3.5,93.3 -2.4,8.6 -2.2,8.7 19,6.2 15.9,-1.9 25.6,-4 32.7,-7.2 3,-1.4 9.1,-3.4 13.5,-4.4 18.8,-4.6 31.3,-8.5 51.2,-16.5 11.7,-4.6 22,-8.4 23,-8.4 2.8,0.1 5.8,3 10.7,10.6 12.2,19.1 12.3,29.2 0.5,45.5 -3.3,4.6 -6.5,9.4 -7,10.7 -1.5,3.8 -9.5,10.9 -19.2,16.9 -13,8 -39,21 -53.7,26.7 -6.9,2.7 -20.9,8.2 -31.1,12.2 -10.2,4.1 -20.8,7.8 -23.5,8.3 -2.7,0.6 -7.6,2 -10.8,3.1 -6.5,2.3 -10.9,2.3 -39.1,0.2 -30.6,-2.4 -77.7,-3.6 -155,-3.9 -73.7,-0.4 -83.6,-0.2 -109.5,1.6 -15.7,1.2 -36.4,2.6 -46,3.1 -40.4,2.5 -91.5,12.2 -108,20.5 -7.4,3.8 -8.4,6.3 -8.3,22 0,15.1 1.8,24.7 7,38 4.7,11.9 5.3,21 2.4,35.3 -3.1,14.7 -5.9,22.8 -10.6,29.7 -6.6,9.9 -16.7,14.5 -24.3,11 z"
        id="path1524" />
    </g>
  </g>
</svg>