<?xml version="1.0" encoding="UTF-8" standalone="no"?>
<svg xmlns:dc="http://purl.org/dc/elements/1.1/" xmlns:cc="http://creativecommons.org/ns#"
  xmlns:rdf="http://www.w3.org/1999/02/22-rdf-syntax-ns#" xmlns:svg="http://www.w3.org/2000/svg"
  xmlns="http://www.w3.org/2000/svg" xmlns:sodipodi="http://sodipodi.sourceforge.net/DTD/sodipodi-0.dtd"
  xmlns:inkscape="http://www.inkscape.org/namespaces/inkscape" sodipodi:docname="logo.svg"
  inkscape:version="1.0 (4035a4f, 2020-05-01)" id="svg8" version="1.1" viewBox="0 0 655.63748 175.15417" height="662"
  width="2478">
  <defs id="defs2">
    <style type="text/css">
      #text1502,
      #g1526 {
        fill: #000000;
      }
    </style>
  </defs>
  <metadata id="metadata5">
    <rdf:RDF>
      <cc:Work rdf:about="">
        <dc:format>image/svg+xml</dc:format>
        <dc:type rdf:resource="http://purl.org/dc/dcmitype/StillImage" />
        <dc:title></dc:title>
      </cc:Work>
    </rdf:RDF>
  </metadata>
  <g id="layer1" inkscape:groupmode="layer" inkscape:label="Calque 1">
    <g transform="matrix(0.20541154,0,0,0.20541154,-0.19584771,-0.20541154)" fill="#000000" id="g1526">
      <path
        d="m 544.8,852.5 c -4,-2.2 -4.9,-4.7 -6.3,-16.8 -1,-8.7 -1.7,-11.4 -3.4,-13 -1.7,-1.7 -2.6,-1.9 -4.8,-1.1 -2.9,1 -4.5,3.6 -6.2,9.9 -1.4,5.4 -6.5,11.8 -12.7,16.1 -9.6,6.6 -16.2,4.3 -18.5,-6.4 -2.9,-14.2 -11.5,-13.5 -28,2.4 -13.4,12.9 -16.6,11.5 -17.9,-7.6 -1.1,-16.2 -3.6,-17.8 -12.2,-7.7 -9.4,11 -15.6,16.7 -18.2,16.7 -3.4,0 -8,-4.2 -10.7,-9.7 -2.1,-4.3 -2.2,-6.1 -2.4,-25.7 -0.1,-11.6 -0.7,-24.4 -1.4,-28.5 -1.8,-11.7 -1.7,-37 0.2,-48.1 3.1,-17.9 10.8,-39.7 17.4,-49.3 5.7,-8.2 27.4,-24.1 37.8,-27.5 3.3,-1.1 7.7,-2.7 9.7,-3.6 5.5,-2.4 15,-2.2 25.3,0.4 10.6,2.6 11.6,3.1 17.5,8.2 23.1,20 42.3,29.8 58,29.8 4.8,0 37.1,-4.1 44,-5.6 6.1,-1.4 13.3,-4 23.2,-8.6 8.6,-3.9 12.3,-5.1 19.2,-5.8 14,-1.6 25.9,1.2 31.8,7.6 3.4,3.8 9.3,18.5 11.2,28.2 3.4,17.4 2.8,42.7 -1.5,74.2 -3.9,27.9 -6.1,36.4 -11.5,43.7 -2.8,3.7 -13.9,11.3 -16.5,11.3 -1,0 -3.6,-1.6 -5.8,-3.5 -5.6,-5.1 -7.1,-4.8 -17.7,3.6 -8.5,6.8 -10.7,7.6 -13.9,5.5 -3.3,-2.2 -4.5,-5.4 -4.5,-12.2 0,-5.2 -2.1,-12.4 -3.6,-12.4 -2.1,0 -4.6,4.2 -6.9,11.4 -3,9.6 -7.8,16.5 -14.2,20.7 -8.8,5.5 -14.3,2.6 -14.3,-7.8 0,-5.6 -1.4,-9.4 -5.7,-15 -4,-5.4 -5.8,-4.5 -10.2,5 -5,10.6 -9,16 -14.3,19.1 -5.8,3.3 -8.8,3.9 -12,2.1 z"
        id="path1522" />
      <path
        d="m 208.2,537.5 c -6.2,-2.8 -11.5,-7.9 -17,-16.5 -6.8,-10.4 -12.1,-16.4 -23.2,-26.2 -11.5,-10.2 -23,-17.6 -28.3,-18.2 -2.3,-0.3 -16.5,-1 -31.5,-1.6 -28.9,-1.1 -40,-2.2 -49.7,-4.6 C 45.8,467.2 20.3,452.5 11.1,443.1 2,433.7 -1.2,419.3 2.4,403.5 c 3.5,-15.2 17.1,-36.9 29.8,-47.8 23,-19.6 89.6,-46.6 115.3,-46.7 13.7,-0.1 21.4,-1.5 24.4,-4.4 2.4,-2.4 2.6,-3.5 3,-11.8 0.2,-5 -0.5,-19.5 -1.5,-32.2 -2.3,-28.7 -2.6,-86 -0.6,-100.6 4.6,-33.2 15.4,-52.2 44,-77.7 27.7,-24.6 50.8,-38.1 91,-53.2 26.8,-10 41,-13.6 63.2,-16.1 5.2,-0.6 15.8,-2.6 23.5,-4.5 24.1,-5.8 42.7,-7.5 84,-7.5 32.2,0 45.6,1.1 62.4,4.9 6.9,1.6 18.6,3.9 26,5 21.7,3.5 37.1,9.4 55.1,21.2 22.6,14.9 38.4,36.1 65.6,88.4 9.9,19 9.9,19 10.2,62.5 0.4,49.1 -1,84.4 -3.5,93.3 -2.4,8.6 -2.2,8.7 19,6.2 15.9,-1.9 25.6,-4 32.7,-7.2 3,-1.4 9.1,-3.4 13.5,-4.4 18.8,-4.6 31.3,-8.5 51.2,-16.5 11.7,-4.6 22,-8.4 23,-8.4 2.8,0.1 5.8,3 10.7,10.6 12.2,19.1 12.3,29.2 0.5,45.5 -3.3,4.6 -6.5,9.4 -7,10.7 -1.5,3.8 -9.5,10.9 -19.2,16.9 -13,8 -39,21 -53.7,26.7 -6.9,2.7 -20.9,8.2 -31.1,12.2 -10.2,4.1 -20.8,7.8 -23.5,8.3 -2.7,0.6 -7.6,2 -10.8,3.1 -6.5,2.3 -10.9,2.3 -39.1,0.2 -30.6,-2.4 -77.7,-3.6 -155,-3.9 -73.7,-0.4 -83.6,-0.2 -109.5,1.6 -15.7,1.2 -36.4,2.6 -46,3.1 -40.4,2.5 -91.5,12.2 -108,20.5 -7.4,3.8 -8.4,6.3 -8.3,22 0,15.1 1.8,24.7 7,38 4.7,11.9 5.3,21 2.4,35.3 -3.1,14.7 -5.9,22.8 -10.6,29.7 -6.6,9.9 -16.7,14.5 -24.3,11 z"
        id="path1524" />
    </g>
    <g style="font-style:normal;font-variant:normal;font-weight:normal;font-stretch:normal;font-size:90.4643px;line-height:1.25;font-family:'Bowlby One SC';-inkscape-font-specification:'Bowlby One SC, Normal';font-variant-ligatures:normal;font-variant-caps:normal;font-variant-numeric:normal;font-variant-east-asian:normal;stroke-width:0.137374"
      id="text1502" aria-label="Dupondt">
      <path id="path1539"
        style="font-style:normal;font-variant:normal;font-weight:normal;font-stretch:normal;font-size:90.4643px;font-family:'Bowlby One SC';-inkscape-font-specification:'Bowlby One SC, Normal';font-variant-ligatures:normal;font-variant-caps:normal;font-variant-numeric:normal;font-variant-east-asian:normal;stroke-width:0.137374"
        d="m 214.04793,56.061019 q 0,-0.485892 0.53006,-0.839268 0.57424,-0.397549 1.63437,-0.574237 1.06012,-0.22086 2.12025,-0.353376 1.06013,-0.132516 2.51781,-0.176688 1.50185,-0.04417 2.47363,-0.04417 0.97179,0 2.2086,0.04417 1.28099,0 1.50185,0 h 4.94727 q 1.45767,0 4.06382,-0.08834 2.65033,-0.08834 3.88714,-0.08834 21.07006,0 30.12532,7.244212 l 1.59019,1.413504 q 0.75093,0.706753 1.67854,1.855225 0.92761,1.104301 2.25277,3.401246 1.36934,2.252773 2.42947,4.903095 1.06012,2.650321 1.81105,6.537459 0.75092,3.887138 0.75092,8.039308 0,6.449115 -1.76688,12.058962 -1.76688,5.609849 -4.85892,9.717849 -3.04787,4.108 -7.20004,7.11169 -4.108,2.95953 -8.92275,4.46138 -4.81475,1.45767 -9.9387,1.45767 h -1.41351 q -1.8994,0 -5.65402,-0.0883 -3.75462,-0.0883 -5.65402,-0.0883 -11.08717,0 -20.05409,0.35337 -1.06013,-2.12025 -1.06013,-3.88714 z m 25.97315,50.709481 q 2.65032,0 4.77057,-0.57424 2.12026,-0.6184 3.57794,-1.59019 1.45767,-0.97178 2.56198,-2.47363 1.1043,-1.50185 1.7227,-3.092043 0.66258,-1.590193 1.01596,-3.622106 0.39755,-2.076085 0.53006,-3.887138 0.13252,-1.855225 0.13252,-4.107998 V 84.68449 q 0,-8.127652 -3.22456,-11.970618 -3.22455,-3.887138 -11.26386,-4.107999 -0.22086,0.485893 -0.70675,1.325161 -0.4859,0.839269 -0.70676,1.325161 v 2.120257 q 0,0.66258 -0.0442,3.445418 -0.57424,29.59525 1.63437,29.94863 z" />
      <path id="path1541"
        style="font-style:normal;font-variant:normal;font-weight:normal;font-stretch:normal;font-size:90.4643px;font-family:'Bowlby One SC';-inkscape-font-specification:'Bowlby One SC, Normal';font-variant-ligatures:normal;font-variant-caps:normal;font-variant-numeric:normal;font-variant-east-asian:normal;stroke-width:0.137374"
        d="m 285.87164,70.461098 q -0.17669,-0.88344 -0.17669,-5.03561 0,-4.770579 0.88344,-5.654019 h 24.02958 v 37.104499 q 0,5.742362 3.35707,5.742362 1.41351,0 2.34112,-1.23682 0.92761,-1.28098 0.92761,-3.003693 v -6.53746 q 0.26503,-19.347346 0.26503,-19.524034 0,-7.685932 -0.17668,-11.131349 0,-1.236817 1.23681,-1.766881 h 24.55965 v 6.890835 q -0.57424,16.741197 -0.70676,21.555947 v 2.738666 q 0,0.530064 -0.0442,1.413504 -0.0442,0.883441 -0.0442,1.236817 0,1.501849 0.0883,2.120257 v 3.445418 q 0,6.139913 -1.23681,8.834403 v 0.17669 q -1.41351,3.3129 -4.06383,5.74236 -2.65032,2.38529 -6.05156,3.75462 -3.40125,1.32516 -6.97918,1.94357 -3.57794,0.57424 -7.55342,0.57424 -1.23682,0 -1.85523,-0.26503 h -1.06012 q 0,0.44172 -1.32516,0.44172 v 0.0883 q -0.97179,0.0442 -5.65402,-0.44172 h -2.03192 q -2.78283,-0.3092 -5.38898,-1.23682 -2.56198,-0.92761 -4.99144,-2.60614 -2.42946,-1.72271 -4.28469,-4.06383 -1.81105,-2.34112 -2.95952,-5.69819 -1.14848,-3.35708 -1.28099,-7.332557 0.0442,-2.296945 0,-6.360771 0,-4.063827 0.0442,-7.376728 0.0442,-3.357074 0.22086,-6.493287 V 77.26359 q 0,-0.22086 0.0442,-0.706752 0.0442,-0.485893 0.0442,-0.706753 0,-0.66258 -0.0883,-1.987741 -0.0883,-1.325161 -0.0883,-1.987741 v -1.501849 z" />
      <path id="path1543"
        style="font-style:normal;font-variant:normal;font-weight:normal;font-stretch:normal;font-size:90.4643px;font-family:'Bowlby One SC';-inkscape-font-specification:'Bowlby One SC, Normal';font-variant-ligatures:normal;font-variant-caps:normal;font-variant-numeric:normal;font-variant-east-asian:normal;stroke-width:0.137374"
        d="M 350.89286,119.13867 349.96524,89.7201 q 0,-3.047869 0.0883,-6.890835 0.0883,-3.842966 0.22086,-6.935008 0.13251,-3.092041 0.22086,-7.023351 0.13251,-3.93131 0.13251,-7.155868 0,-0.88344 0.57424,-1.104301 0.61841,-0.265032 1.50185,-0.176688 0.92761,0.08834 2.07608,-0.132516 h 31.62717 q 2.6945,0 5.38899,0.706753 2.69449,0.66258 5.25647,2.208601 2.60615,1.501848 4.54972,3.71045 1.98774,2.164429 3.18038,5.433158 1.23682,3.26873 1.23682,7.20004 0,5.212299 -2.2086,9.276125 -2.2086,4.019654 -6.6258,7.597588 -5.43316,2.827009 -13.07492,3.268729 h -1.41351 q -1.76688,0.353373 -3.53376,0.353373 h -3.53376 q -0.26503,0 -0.44172,0.0884 0,11.57307 0.35337,17.49212 -0.22086,0.88344 -0.97178,1.19264 -0.70675,0.30921 -2.47363,0.30921 z m 22.08601,-33.747428 v 0.795096 q 0.0442,0.04417 0.57423,0.309205 0.57424,0.22086 0.57424,0.309204 v 0.08834 q -0.0883,0 -0.0883,-0.176688 0.0883,0.08834 0.53006,0.08834 3.93131,0 6.6258,-1.766881 2.73867,-1.766881 2.73867,-5.477331 0,-1.678537 -0.57424,-2.871181 -0.57423,-1.192645 -1.4135,-1.811053 -0.7951,-0.662581 -2.2086,-0.971785 -1.36934,-0.353376 -2.51781,-0.44172 -1.14847,-0.08834 -2.91535,-0.08834 -0.0442,0.04417 -0.35338,0.309204 -0.3092,0.265032 -0.44172,0.397548 v 4.593891 q -0.53006,4.240514 -0.53006,6.714147 z" />
      <path id="path1545"
        style="font-style:normal;font-variant:normal;font-weight:normal;font-stretch:normal;font-size:90.4643px;font-family:'Bowlby One SC';-inkscape-font-specification:'Bowlby One SC, Normal';font-variant-ligatures:normal;font-variant-caps:normal;font-variant-numeric:normal;font-variant-east-asian:normal;stroke-width:0.137374"
        d="m 407.60973,88.925004 -0.0883,-0.971785 q 0.83927,-7.200039 1.5902,-10.027049 1.72271,-6.625803 6.18408,-11.087177 l 1.06013,-1.060129 q 2.12026,-2.473633 6.44911,-4.240514 h 1.67854 q 4.32886,-1.811053 14.22339,-3.357074 2.47364,0 5.16813,0.397548 2.73866,0.353377 6.05157,1.236817 3.3129,0.839268 6.36077,2.738665 3.09204,1.855225 5.12395,4.461375 v 1.236816 q 7.24421,9.055265 7.24421,20.319131 0,12.677372 -5.8307,20.672502 l -1.76688,2.20861 q -2.03192,2.5178 -5.07979,4.32885 -3.00369,1.81106 -6.40494,2.78284 -3.40125,0.92761 -6.53746,1.32516 -3.09204,0.39755 -6.18408,0.39755 -4.54972,0 -8.70189,-1.06013 -4.108,-1.1043 -7.73011,-3.40124 -3.57793,-2.29695 -6.31659,-5.65402 -2.73867,-3.35708 -4.46138,-8.08348 -1.67854,-4.770582 -2.03191,-10.512945 z m 24.29461,0.353376 q 0,15.54855 5.91905,15.54855 1.63437,0 2.82701,-0.61841 1.23682,-0.6184 1.98774,-1.89939 0.75093,-1.28099 1.23682,-2.606153 0.48589,-1.32516 0.66258,-3.312901 0.22086,-1.987741 0.26503,-3.48959 0.0883,-1.501849 0.0883,-3.622106 v -1.590193 q 0,-2.296945 -0.26504,-4.417202 -0.26503,-2.120257 -0.92761,-4.240514 -0.61841,-2.164429 -1.94357,-3.445418 -1.32516,-1.325161 -3.22456,-1.325161 -6.6258,0 -6.6258,13.074919 z" />
      <path id="path1547"
        style="font-style:normal;font-variant:normal;font-weight:normal;font-stretch:normal;font-size:90.4643px;font-family:'Bowlby One SC';-inkscape-font-specification:'Bowlby One SC, Normal';font-variant-ligatures:normal;font-variant-caps:normal;font-variant-numeric:normal;font-variant-east-asian:normal;stroke-width:0.137374"
        d="m 533.58836,60.124845 q 0.53006,0.176688 0.79509,1.546021 0.30921,1.325161 0.35338,3.357074 0.0442,2.031913 0,3.887138 -0.0442,1.855225 -0.13252,3.798794 -0.0442,1.943569 -0.0442,2.429461 -0.0883,1.766881 -0.0883,4.947266 v 4.682235 q 0,3.092041 0.0883,8.481028 0.0883,5.388987 0.0883,7.950968 v 16.07861 q -0.17668,1.50185 -2.47363,1.50185 h -24.73633 q -0.7951,-0.17669 -2.03192,-3.71045 -0.83926,-2.34112 -2.827,-7.68593 -1.94357,-5.34482 -3.35708,-9.36447 -1.4135,-4.063826 -2.56198,-7.86262 v -0.265032 0.265032 q -0.13251,2.915354 -0.26503,8.701889 -0.13251,5.742361 -0.26503,8.613541 v 9.0111 q 0,1.32516 -0.3092,1.85522 -0.30921,0.48589 -1.63437,0.7951 h -18.19887 l -1.94357,-1.94357 q 0.22086,-7.33256 0.35338,-22.969453 0.13251,-15.636896 0.35337,-23.14614 V 61.53835 q 0.44172,-1.590193 1.06013,-1.590193 v 0.176688 q 3.0037,0 9.40864,-0.176688 6.44912,-0.176688 9.67367,-0.176688 h 7.4209 q 0.0442,0 0.13252,0.04417 0.7951,0.309204 0.88344,0.706752 l 0.0442,0.309205 q 1.59019,4.284686 3.22456,8.878576 1.63436,4.59389 3.88714,11.13135 2.25277,6.493287 3.13621,8.96692 v -6.537459 q 0.88344,-15.548552 0.88344,-22.086011 0,-0.706753 0.97179,-0.883441 0.97178,-0.176688 3.00369,-0.176688 z" />
      <path id="path1549"
        style="font-style:normal;font-variant:normal;font-weight:normal;font-stretch:normal;font-size:90.4643px;font-family:'Bowlby One SC';-inkscape-font-specification:'Bowlby One SC, Normal';font-variant-ligatures:normal;font-variant-caps:normal;font-variant-numeric:normal;font-variant-east-asian:normal;stroke-width:0.137374"
        d="m 567.77748,59.594781 q 6.05156,0 10.86631,0.795096 4.85893,0.795097 9.27613,2.82701 4.46137,2.031913 7.4209,5.300642 2.95952,3.26873 4.68223,8.481029 1.76688,5.212298 1.76688,12.103134 0,5.03561 -1.19264,9.408641 -1.19265,4.328857 -3.26873,7.465067 -2.07609,3.13622 -4.77058,5.60985 -2.65032,2.42946 -5.78654,3.97548 -3.13621,1.54602 -6.27242,2.38529 -3.13622,0.83927 -6.27243,1.01596 H 543.92458 V 60.301533 q 0.13252,0 0.4859,0.04417 0.35337,0.04417 0.48589,0.04417 1.89939,0 5.74236,-0.397548 3.88714,-0.397548 5.83071,-0.397548 z m 0.53006,45.585529 q 2.25277,0 3.97548,-0.70675 1.72271,-0.75093 2.73867,-2.12026 1.06013,-1.36933 1.72271,-2.871183 0.70675,-1.501849 1.01595,-3.533762 0.30921,-2.031913 0.39755,-3.533761 0.13252,-1.546021 0.13252,-3.48959 v -3.180386 q -0.0442,-0.309204 -0.26504,-3.003697 -0.22086,-2.694494 -0.97178,-4.593891 -0.70675,-1.369332 -1.59019,-2.341117 -0.83927,-1.015956 -1.67854,-1.546021 -0.83927,-0.574236 -1.98774,-0.839268 -1.1043,-0.309204 -2.03191,-0.397548 -0.92762,-0.08834 -2.25278,-0.08834 v 0.971784 h -1.32516 v 31.27379 z" />
      <path id="path1551"
        style="font-style:normal;font-variant:normal;font-weight:normal;font-stretch:normal;font-size:90.4643px;font-family:'Bowlby One SC';-inkscape-font-specification:'Bowlby One SC, Normal';font-variant-ligatures:normal;font-variant-caps:normal;font-variant-numeric:normal;font-variant-east-asian:normal;stroke-width:0.137374"
        d="M 603.20346,76.203461 V 60.301533 h 51.41623 q 0.70675,0.132516 0.88344,0.574237 0.17669,0.397548 0.17669,1.192644 v 14.135047 q -0.0883,1.060129 -1.23682,1.060129 h -12.54485 v 40.63826 q 0,0.0442 -0.0442,0.22086 -0.0442,0.17669 -0.0442,0.22086 0,0.0442 -0.0442,0.17669 -0.0442,0.13251 -0.0883,0.17669 -0.0442,0.0442 -0.0883,0.17669 -0.0442,0.0883 -0.13251,0.13251 -0.0442,0 -0.17669,0.0883 -0.0883,0.0442 -0.22086,0.0883 -0.0883,0.0442 -0.26503,0.0883 -0.13252,0 -0.30921,0.0442 h -2.82701 q -5.65402,0 -5.65402,-0.35338 -0.35337,0 -1.06012,0.0442 -0.70676,0.0442 -1.06013,0.0442 h -3.53376 q -1.01596,0 -2.91536,0.0442 -1.85522,0.0442 -2.91535,0.0442 h -2.47363 l -1.76689,-1.23682 v -9.54116 q 0.0442,-2.56197 0.35338,-10.954658 0.35338,-8.392684 0.35338,-13.251607 v -1.148472 q 0,-0.353376 0.0442,-1.104301 0.0442,-0.750924 0.0442,-1.1043 0,-0.397549 -0.0442,-1.590193 -0.0442,-1.236817 -0.0442,-1.590193 h -11.04301 q -0.97178,0 -1.85522,-0.309204 -0.88344,-0.353376 -0.88344,-1.104301 z" />
    </g>
  </g>
</svg>